<svg width="16" height="20" xmlns="http://www.w3.org/2000/svg"><g fill="#000" fill-rule="nonzero"><path d="M6.563 10.48A21.713 21.713 0 016.5 7.186l.063-1.25a10.648 10.648 0 00-.605-4.208A2.408 2.408 0 003.333.146a3.813 3.813 0 00-3.27 3.77v1.522c0 1.625.229 3.25.687 4.812l1.48 4.958c.333 1.146 1.478 1.875 2.666 1.709a2.421 2.421 0 002.062-2.625l-.396-3.813zM5.479 8.436h-.042c-.187 0-.354-.145-.354-.333-.02-.979-.312-3.312-1.333-4.229-.27-.25-.708-.23-.98.02-.666.584-1.603 1.897-1.062 4.334a.354.354 0 01-.27.417h-.021c-.188.02-.355-.084-.396-.271-.458-2.104.083-3.5.646-4.27.27-.376.562-.668.812-.876a.958.958 0 00.354-.75v-.854c0-.188.167-.354.354-.354.188 0 .355.167.355.354v.688c0 .333.146.645.416.812 1.73 1.167 1.813 4.77 1.813 4.958.02.188-.104.334-.292.354zM12.188 3.146a2.419 2.419 0 00-2.667 1.52 10.72 10.72 0 00-.709 4.209l.042 1.25c.021 1.104-.02 2.208-.166 3.292l-.48 3.77a2.425 2.425 0 001.98 2.688 2.402 2.402 0 002.708-1.625l1.604-4.917c.5-1.541.792-3.166.813-4.791l.041-1.521a3.79 3.79 0 00-3.166-3.875zm2.083 8.291a.33.33 0 01-.396.25h-.02c-.188-.041-.293-.229-.25-.416.603-2.417-.293-3.75-.938-4.354-.271-.25-.688-.292-.98-.042-1.041.896-1.395 3.23-1.437 4.188 0 .187-.167.333-.354.333h-.042c-.166-.021-.291-.188-.291-.354 0-.167.187-3.771 1.937-4.896a.953.953 0 00.438-.813l.02-.687c0-.188.167-.354.354-.333.188 0 .355.166.355.354l-.021.854c0 .292.125.583.333.77.25.209.521.5.792.896.5.75 1.02 2.146.5 4.25z"/></g></svg>