<svg xmlns="http://www.w3.org/2000/svg" data-name="Layer 2" viewBox="0 0 64 80" x="0px" y="0px"><path d="M62,39V25H52.862A21.664,21.664,0,0,0,51.7,22.208l6.667-6.668L48.46,5.631,41.792,12.3A21.807,21.807,0,0,0,39,11.138V2H25v9.138A21.807,21.807,0,0,0,22.208,12.3L15.54,5.631,5.632,15.54,12.3,22.208A21.664,21.664,0,0,0,11.138,25H2V39h9.138A21.723,21.723,0,0,0,12.3,41.792L5.632,48.46l9.908,9.908L22.208,51.7A21.723,21.723,0,0,0,25,52.862V62H39V52.862A21.723,21.723,0,0,0,41.792,51.7l6.668,6.667,9.908-9.908L51.7,41.792A21.723,21.723,0,0,0,52.862,39Zm-9.288,9.46L48.46,52.712,42.469,46.72l-1.335.789A17.864,17.864,0,0,1,36.5,49.433l-1.5.385V58H29V49.818l-1.5-.385a17.864,17.864,0,0,1-4.631-1.924l-1.335-.789L15.54,52.712,11.288,48.46l5.992-5.991-.789-1.335A17.864,17.864,0,0,1,14.567,36.5L14.182,35H6V29h8.182l.385-1.5a17.793,17.793,0,0,1,1.924-4.629l.789-1.335L11.288,15.54l4.252-4.251,5.992,5.992,1.335-.789A17.829,17.829,0,0,1,27.5,14.567l1.5-.386V6h6v8.181l1.5.386a17.829,17.829,0,0,1,4.631,1.925l1.335.789,5.992-5.992,4.252,4.251L46.72,21.533l.789,1.335A17.793,17.793,0,0,1,49.433,27.5l.385,1.5H58v6H49.818l-.385,1.5a17.864,17.864,0,0,1-1.924,4.631l-.789,1.335Z"/><path d="M32,22A10,10,0,1,0,42,32,10.011,10.011,0,0,0,32,22Zm0,16a6,6,0,1,1,6-6A6.006,6.006,0,0,1,32,38Z"/></svg>