<svg width="17" height="20" xmlns="http://www.w3.org/2000/svg"><g fill="#000" fill-rule="nonzero"><circle cx="8.222" cy="12.444" r="1"/><circle cx="13.616" cy="12.444" r="1"/><path d="M5.515 11.94l2.687-2.687 2.707 2.686 2.687-2.686 1.576 1.575c-.425-2.687-2.364-4.848-4.89-5.636.97-.404 1.678-1.374 1.678-2.485C11.96 1.212 10.747 0 9.273 0a2.686 2.686 0 00-2.687 2.687c0 .909.444 1.697 1.131 2.182a7.078 7.078 0 00-6.525 6l1.636-1.637 2.687 2.707z"/><circle cx="2.828" cy="12.444" r="1"/><path d="M15.455 13.899h-1.091l.929-.93v-1.03-.04l-1.657-1.657-2.222 2.202L12.87 13.9h-.99l-.97-.97-.97.97h-.99l1.455-1.455-2.182-2.202-2.202 2.202L7.475 13.9h-.99l-.97-.97-.97.97h-.99l1.455-1.455-2.182-2.202-1.717 1.718v.97l.97.969h-.97a.927.927 0 00-.93.93v4.06c0 .505.405.93.93.93h14.344c.505 0 .929-.405.929-.93v-4.08a.936.936 0 00-.93-.91zM1.636 12.444l1.192-1.191 1.192 1.191-1.192 1.192-1.192-1.192zm5.374 0l1.192-1.191 1.192 1.191-1.192 1.192-1.192-1.192zm5.394 0l1.192-1.191 1.192 1.191-1.192 1.192-1.192-1.192z"/></g></svg>