<svg width="17" height="20" xmlns="http://www.w3.org/2000/svg"><g fill="#000" fill-rule="nonzero"><path d="M14.863 5.963c-.117-1.294-.941-2.175-2.141-2.421.023-.985-.204-1.647-.215-1.677a.312.312 0 00-.04-.078C11.197.021 8.656.152 8.56.158c-3.418.078-4.217 1.486-4.262 1.57-.235.548-.272 1.38-.275 1.807-1.156.235-1.897.917-1.976 2.074L.3 17.54a.315.315 0 00.074.246c.05.055.114.089.184.101v.862c0 .169.136.307.308.307H2.15c.17 0 .308-.138.308-.307v-.874a.296.296 0 00.215-.228l1.265-5.938.065 5.68c.003.129.083.243.206.286.126.043.249.086.375.126v1.372c0 .145.102.271.246.302 1.173.246 2.37.372 3.585.372 1.215 0 2.45-.126 3.69-.372a.309.309 0 00.245-.302v-1.409c.093-.028.188-.055.28-.086a.304.304 0 00.216-.292l.015-5.674 1.354 5.938c.03.142.157.24.298.24v.859c0 .169.139.307.308.307h1.283c.17 0 .308-.138.308-.307v-.874a.264.264 0 00.138-.092.312.312 0 00.074-.247l-1.76-11.572zm-2.76-2.766a5.38 5.38 0 010 .397c-.508.255-.972.458-1.388.621A27.5 27.5 0 0012.1 3.2l.004-.003zM8.338 4.86c-1.206-.684-2.43-1.41-3.277-2.157.972-.4 3.628-1.237 6.637.03-.708.554-2.246 1.693-3.36 2.127zM4.857 1.99C4.932 1.879 5.71.839 8.586.773c.023 0 2.27-.114 3.353 1.335.004.016.01.04.018.064a9.226 9.226 0 00-7.152-.034c.016-.051.033-.101.052-.147zM4.65 3.163c.507.446 1.132.88 1.806 1.299a11.252 11.252 0 01-1.818-.843c0-.112.002-.272.012-.456zM1.84 18.44h-.667v-.55h.668v.55zm9.893.477c-2.228.415-4.425.418-6.536.003v-.941c1.016.267 2.056.403 3.117.403 1.12 0 2.262-.148 3.419-.45v.985zm4.061-.477h-.667v-.55h.667v.55zm-1.037-1.166l-1.895-8.332a.31.31 0 00-.335-.24.311.311 0 00-.274.304l-.025 8.151c-2.564.781-5.131.832-7.6.01-.006 0-.009 0-.015-.004L4.518 8.93a.309.309 0 00-.276-.301.311.311 0 00-.333.243l-1.787 8.403H.962L2.66 5.677c.064-.945.653-1.4 1.61-1.56.31.185 1.298.745 2.52 1.105v3.6c0 .169.138.307.307.307.17 0 .308-.138.308-.307V5.379c.768.165.908.184 1.827-.031v3.474c0 .169.139.307.308.307a.307.307 0 00.308-.307V5.175a16.4 16.4 0 002.594-1.061c1.059.162 1.709.85 1.812 1.923l1.704 11.237h-1.2z"/><path d="M11.598 13.505c-.907-.585-.892-2.13-.892-2.145a.312.312 0 00-.308-.314h-4.04a.312.312 0 00-.308.314c.028 1.625-.772 2.117-.802 2.132a.313.313 0 00-.157.271v1.03c0 .17.138.309.307.309h6.031a.307.307 0 00.308-.308v-1.03a.307.307 0 00-.139-.26zm-.476.981H5.706v-.566c.296-.24.896-.892.957-2.258h3.44c.043.541.228 1.643 1.019 2.258v.566z"/></g></svg>