<svg width="14" height="20" xmlns="http://www.w3.org/2000/svg"><path d="M13.873 13.41l-2.275-6.984a.236.236 0 00-.296-.15l-2.426.791-.356-.08-.459-.101-.204-.045-.468-.105-1.375-.306a.235.235 0 00-.279.177l-1.394 6.267-2.756 1.754a.186.186 0 00-.045.037 2.23 2.23 0 00-.712 2.716c.007.014.013.03.02.042a2.21 2.21 0 001.53 1.222 2.239 2.239 0 001.527-.202.241.241 0 00.086-.034l3.54-2.251a2.23 2.23 0 00.985-1.407l.438-1.969.37 1.136-1.42 2.798c-.012.017-.012.014-.019.033l-.041.081a.263.263 0 00-.02.054 2.232 2.232 0 001.043 2.869c.532.27 1.138.317 1.704.133a2.229 2.229 0 001.21-.952.235.235 0 00.059-.072l1.901-3.74a2.227 2.227 0 00.132-1.713zm-2.65-6.616l.227.694-.508.166-.226-.694.508-.166zm-.953.311l.226.693-.508.166-.226-.693.508-.166zm-.953.311l.226.694-.509.166-.227-.694.51-.166zm-.955.31l.226.695-.508.165-.226-.693.508-.166zm-1.241-.57l.522.117-.047.211-.11.036a.234.234 0 00-.151.295l.048.147-.42-.094.158-.711zm-.98-.217l.523.117-.159.71-.522-.116.158-.71zM2.806 18.222a1.963 1.963 0 01-.336-.042 1.736 1.736 0 01-1.235-1.04 1.843 1.843 0 01-.103-.337c-.006-.03-.008-.055-.013-.084a1.803 1.803 0 01-.015-.187c-.002-.044-.004-.087-.003-.13l.003-.023c.012-.204.06-.408.144-.603.576.024 1.11.33 1.42.815.31.486.359 1.1.138 1.631zm5.252-3.572a1.764 1.764 0 01-.778 1.114l-.781.496a1.773 1.773 0 01.571-2.397c.366-.231.795-.32 1.22-.253l-.232 1.04zm.332-1.496a2.226 2.226 0 00-1.572.315 2.239 2.239 0 00-.713 3.041l-2.3 1.464a.261.261 0 00-.063.024 1.725 1.725 0 01-.425.168 2.24 2.24 0 00-.253-1.828 2.218 2.218 0 00-1.4-.98c-.049-.01-.097-.016-.147-.022.097-.116.203-.225.33-.315.01-.007.02-.013.028-.021l2.8-1.782a.236.236 0 00.103-.147L5.882 8.11l1.67.371 1.117 3.425-.279 1.249zm2.023 6.284c-.446.145-.918.11-1.333-.101a1.797 1.797 0 01-.26-.166c-.019-.014-.038-.027-.055-.042a1.617 1.617 0 01-.205-.196c-.019-.02-.035-.045-.054-.067-.038-.05-.074-.1-.107-.152-.024-.037-.048-.072-.07-.111l-.003-.006a1.795 1.795 0 01-.19-.607 1.775 1.775 0 011.638-.02c.514.261.87.764.95 1.334-.099.054-.203.1-.31.134zm1.044-.857a.228.228 0 00-.042.053 1.77 1.77 0 01-.28.36 2.242 2.242 0 00-1.148-1.443 2.215 2.215 0 00-1.704-.132c-.048.015-.092.036-.14.055.026-.148.062-.295.126-.438a.14.14 0 00.012-.037l.013-.024.012-.02 1.478-2.91a.238.238 0 00.015-.18L8.224 9.033l3.37-1.099 1.358 4.163a2.223 2.223 0 00-1.194 1.073 2.24 2.24 0 00.933 2.981l-1.234 2.43zm1.866-3.67l-.42.824a1.771 1.771 0 01-.727-2.353c.197-.385.52-.68.921-.839l.33 1.012c.148.45.11.932-.104 1.355zM8.346 2.807c.391.269.605.621.605.992 0 .37-.215.723-.605.991a.239.239 0 00.271.393c.523-.362.81-.853.81-1.385s-.286-1.023-.81-1.384c-.39-.269-.604-.621-.604-.992 0-.37.215-.723.604-.991a.239.239 0 00-.27-.393c-.523.361-.81.853-.81 1.385 0 .531.287 1.023.81 1.384zm-2.747 0c.39.269.605.621.605.992 0 .37-.215.723-.605.991a.24.24 0 00.136.435.235.235 0 00.134-.042c.524-.362.811-.853.811-1.385s-.287-1.023-.81-1.384c-.39-.269-.605-.621-.605-.992 0-.37.215-.723.605-.991A.239.239 0 105.6.039c-.523.36-.811.852-.811 1.385 0 .531.288 1.023.81 1.384zm5.495 0c.39.269.605.621.605.992 0 .37-.215.723-.605.991a.24.24 0 00.136.435.235.235 0 00.134-.042c.524-.362.811-.853.811-1.385s-.287-1.023-.81-1.384c-.39-.269-.605-.621-.605-.992 0-.37.215-.723.605-.991a.238.238 0 10-.271-.393c-.522.36-.81.852-.81 1.385 0 .531.288 1.023.81 1.384z" fill="#000" fill-rule="nonzero"/></svg>