<svg width="19" height="20" xmlns="http://www.w3.org/2000/svg"><g fill="#000" fill-rule="nonzero"><path d="M4.24 13.854a1.461 1.461 0 01-.415-1.167l.109-1.125 1.125-.11c.431-.04.858.112 1.166.416l1.93 2.423a.35.35 0 00.547-.437l-1.943-2.44a2.16 2.16 0 00-1.77-.661l-1.247.122-.627-.627a.35.35 0 00-.496.496l.627.627-.121 1.247a2.163 2.163 0 00.657 1.767l2.696 2.199a.35.35 0 10.443-.544L4.24 13.854z"/><path d="M9.439 19.997a3.114 3.114 0 002.277-5.243L6.341 9.008a3.509 3.509 0 10-4.945 4.978l5.992 5.242c.567.497 1.296.77 2.05.769zM1.875 9.504a2.807 2.807 0 013.961-.009l5.369 5.738a2.415 2.415 0 01-3.354 3.468l-5.976-5.227a2.81 2.81 0 010-3.97zM15.498 3.039l.108-.88a.35.35 0 00-.697-.086l-.107.88-1.057.673a2.163 2.163 0 00-.986 1.606l-.07 3.477a.35.35 0 00.344.359h.007a.35.35 0 00.35-.344l.071-3.459c.055-.43.297-.813.663-1.047l.953-.607.78.819c.297.314.44.745.389 1.174l-.72 3.014a.35.35 0 10.683.163l.724-3.034a2.161 2.161 0 00-.57-1.8l-.865-.908z"/><path d="M15.513.026a3.509 3.509 0 00-3.91 3.08l-.438 7.95a3.125 3.125 0 003.12 3.29 3.103 3.103 0 003.07-2.637l1.213-7.775A3.513 3.513 0 0015.513.026zm2.362 3.812L16.663 11.6a2.415 2.415 0 01-4.798-.506l.436-7.927a2.807 2.807 0 015.574.67z"/></g></svg>