<svg width="20" height="18" xmlns="http://www.w3.org/2000/svg"><path d="M.666 18h7.99a.666.666 0 00.665-.572l.666-4.705.666 4.705c.047.33.331.575.666.572h7.989a.666.666 0 00.48-.206.665.665 0 00.186-.493l-.666-13.974V.665A.666.666 0 0018.642 0H1.332a.666.666 0 00-.666.665v2.662L.001 17.301c-.009.183.059.361.186.493a.666.666 0 00.48.206zm11.232-1.33l-1.245-8.745a.666.666 0 00-1.332 0L8.076 16.67h-6.71l.632-12.643h6.371L7.404 6.44a.665.665 0 101.238.493l1.132-2.908h.5l1.804 2.994a.666.666 0 00.912.233.665.665 0 00.233-.898l-1.392-2.33h6.179l.599 12.644h-6.711zm-9.9-15.306h15.978v1.331H1.998v-1.33z" fill="#000" fill-rule="nonzero"/></svg>